replay
version=1
nRows=11
nColumns=40
inDegrees=no
endheader
time	/jointset/ground_pelvis/pelvis_tilt/value	/jointset/ground_pelvis/pelvis_list/value	/jointset/ground_pelvis/pelvis_rotation/value	/jointset/ground_pelvis/pelvis_tx/value	/jointset/ground_pelvis/pelvis_ty/value	/jointset/ground_pelvis/pelvis_tz/value	/jointset/hip_r/hip_flexion_r/value	/jointset/hip_r/hip_adduction_r/value	/jointset/hip_r/hip_rotation_r/value	/jointset/walker_knee_r/knee_angle_r/value	/jointset/patellofemoral_r/knee_angle_r_beta/value	/jointset/ankle_r/ankle_angle_r/value	/jointset/subtalar_r/subtalar_angle_r/value	/jointset/mtp_r/mtp_angle_r/value	/jointset/hip_l/hip_flexion_l/value	/jointset/hip_l/hip_adduction_l/value	/jointset/hip_l/hip_rotation_l/value	/jointset/walker_knee_l/knee_angle_l/value	/jointset/patellofemoral_l/knee_angle_l_beta/value	/jointset/ankle_l/ankle_angle_l/value	/jointset/subtalar_l/subtalar_angle_l/value	/jointset/mtp_l/mtp_angle_l/value	/jointset/back/lumbar_extension/value	/jointset/back/lumbar_bending/value	/jointset/back/lumbar_rotation/value	/jointset/acromial_r/arm_flex_r/value	/jointset/acromial_r/arm_add_r/value	/jointset/acromial_r/arm_rot_r/value	/jointset/elbow_r/elbow_flex_r/value	/jointset/radioulnar_r/pro_sup_r/value	/jointset/radius_hand_r/wrist_flex_r/value	/jointset/radius_hand_r/wrist_dev_r/value	/jointset/acromial_l/arm_flex_l/value	/jointset/acromial_l/arm_add_l/value	/jointset/acromial_l/arm_rot_l/value	/jointset/elbow_l/elbow_flex_l/value	/jointset/radioulnar_l/pro_sup_l/value	/jointset/radius_hand_l/wrist_flex_l/value	/jointset/radius_hand_l/wrist_dev_l/value
0.45	-0.1606975659	-0.1477374499	-0.4907489731	1.181831597	1.067086356	-0.1119155501	0.2120407312	0.1501559091	0.3166609279	0.1584432991	0.1584432991	-0.2041418664	-0.2022700338	3.905512954e-05	0.1287998381	-0.1437853818	-0.3648711472	0.08999017386	0.08999017386	-0.09991020677	-0.1850264446	-0.002500717977	0.3808528037	1.187702025	-1.15587748	-0.9771829997	-1.103267651	-1.197201154	0.4295687628	-0.006192870108	0.5970009076	-0.8026968303	-0.05435267388	0.796925377	-1.122947746	1.761551248	0.1908564275	-0.001306589819	0.0006281456228
0.452777778	-0.1608058103	-0.1480646909	-0.4940432446	1.181795023	1.067391304	-0.1121890011	0.2114986384	0.1498659543	0.3168916586	0.1589219461	0.1589219461	-0.2042133638	-0.2027780623	5.486840691e-05	0.1288716075	-0.1440991335	-0.3657175341	0.08955143023	0.08955143023	-0.1002377309	-0.1847736511	-0.00280490894	0.3815239996	1.19252408	-1.161425695	-0.9774414221	-1.09911648	-1.19926113	0.4286936653	-0.03193930672	0.6181025292	-0.786815489	-0.05470423608	0.7977669526	-1.123511693	1.761322491	0.1910623551	-0.001555931385	0.0007078142051
0.455555556	-0.1598612186	-0.1484539719	-0.4979437149	1.181808014	1.067753996	-0.1122622897	0.2096765971	0.1495178377	0.3186476632	0.1594876356	0.1594876356	-0.2038550535	-0.2028632211	9.001004057e-05	0.1270540553	-0.1441921233	-0.3680943182	0.08847715774	0.08847715774	-0.09997967429	-0.1844562459	-0.00312428067	0.3794764827	1.196859211	-1.165026362	-0.9771991058	-1.094733431	-1.201902112	0.4272893882	-0.05511247898	0.6370442288	-0.7713208328	-0.05487776975	0.7984983592	-1.124212686	1.760950818	0.1913779238	-0.001823014169	0.0007917889469
0.458333333	-0.1580201628	-0.148867423	-0.5024500714	1.181856156	1.068161206	-0.1121475583	0.2068160054	0.1491238228	0.3217682059	0.1602031543	0.1602031543	-0.2032596224	-0.2026561423	0.0001530344171	0.1236260097	-0.1440934609	-0.3717897485	0.08690213861	0.08690213861	-0.09933958233	-0.1840367324	-0.003473475018	0.37485893	1.200744342	-1.166697007	-0.9764385153	-1.090114241	-1.205304757	0.425453441	-0.07648671177	0.6545940167	-0.7556597055	-0.05493285365	0.79913351	-1.125053152	1.760567936	0.1917421915	-0.00212118928	0.0008815352172
0.461111111	-0.1554301994	-0.1492632613	-0.5075825652	1.181923553	1.068600473	-0.1118561643	0.2031546356	0.1486918435	0.3261106428	0.1611372828	0.1611372828	-0.2026127194	-0.2022834588	0.0002558040318	0.1188534344	-0.1438223992	-0.3766125176	0.08495328114	0.08495328114	-0.09853114816	-0.1834702368	-0.003872927943	0.3677600738	1.204213781	-1.166396179	-0.9751502948	-1.085253733	-1.209622742	0.4232866654	-0.09653385826	0.6711680904	-0.7394633131	-0.05492901913	0.7996857982	-1.126035364	1.760306939	0.192095635	-0.002466505662	0.0009792138396
0.463888889	-0.1523486172	-0.1496301302	-0.5132652737	1.18199032	1.069058407	-0.1114325362	0.1990265957	0.1482407158	0.3313182821	0.1622971379	0.1622971379	-0.2020187245	-0.2018516493	0.000396839624	0.1131949627	-0.1434307254	-0.3822045505	0.08279097328	0.08279097328	-0.0977756522	-0.1827524633	-0.0043412566	0.3586300603	1.20739841	-1.164385505	-0.9734684255	-1.080145262	-1.214983899	0.4209810289	-0.1148159206	0.6863912404	-0.7230881202	-0.05492971862	0.8001769216	-1.12711999	1.760229509	0.1924020695	-0.002874136964	0.001085586927
0.466666667	-0.1491767879	-0.1499983471	-0.5193002296	1.182032072	1.069521028	-0.1109637071	0.1948887174	0.1478138904	0.3367593538	0.1636076024	0.1636076024	-0.2014838584	-0.2014463566	0.0005546058645	0.107353817	-0.143026532	-0.3880015285	0.08061384218	0.08061384218	-0.09729486938	-0.1819293092	-0.004895366597	0.3483792861	1.210569898	-1.161313281	-0.97168706	-1.074779801	-1.221451351	0.418812639	-0.1290795485	0.6986828555	-0.708338968	-0.05500283379	0.8006393054	-1.12821168	1.760306623	0.1926539532	-0.003359263302	0.001198511103
0.469444444	-0.1463130115	-0.1504010887	-0.5255165637	1.182023635	1.069976668	-0.1105368826	0.1911916393	0.1474724132	0.3418195177	0.1649926396	0.1649926396	-0.2010163142	-0.2011565842	0.0007051669259	0.1020137181	-0.1427365741	-0.3934774121	0.07860132254	0.07860132254	-0.09730398405	-0.1810342666	-0.00556113694	0.3378287769	1.214032401	-1.157742892	-0.9700649968	-1.069146931	-1.229001274	0.4169979382	-0.135547961	0.7057934528	-0.6981870742	-0.05521458096	0.8011053335	-1.129209391	1.760511108	0.1928435425	-0.003942483234	0.00131470675
0.472222222	-0.1440829295	-0.1508681276	-0.531813518	1.181942597	1.070418329	-0.1102237413	0.1883023975	0.1472848924	0.3460264135	0.1663913943	0.1663913943	-0.2006388313	-0.2010667488	0.0008268849557	0.09771440974	-0.1426812037	-0.3982565779	0.07687437955	0.07687437955	-0.09796551985	-0.1800678504	-0.006370511931	0.3275125439	1.218071174	-1.153999743	-0.9687747508	-1.063241055	-1.23753527	0.4156655315	-0.1300103508	0.7053962864	-0.6958985697	-0.05561946415	0.8016028049	-1.130027313	1.760822432	0.1929668839	-0.004648383639	0.001431219524
0.475	-0.1423521074	-0.1513981123	-0.5383697616	1.181790223	1.070857457	-0.1099994188	0.1860646813	0.1472542658	0.3497196806	0.1678252472	0.1678252472	-0.2004081673	-0.201182698	0.0009244733076	0.09417050733	-0.1428162658	-0.4027245712	0.075267254	0.075267254	-0.09909560822	-0.1789075295	-0.007344026865	0.3167027159	1.222659701	-1.149444649	-0.9677399849	-1.057078945	-1.246888424	0.4147901584	-0.1119221545	0.6972626955	-0.7018890097	-0.05619618596	0.8021291941	-1.130706216	1.76121051	0.1930678048	-0.005492318415	0.001552867376
0.477777778	-0.1407835244	-0.1519789914	-0.545476455	1.181577868	1.071312813	-0.1097969626	0.1840923229	0.147344586	0.3535905521	0.1693516049	0.1693516049	-0.2003903979	-0.201470727	0.001015435154	0.09074061061	-0.1430116173	-0.4075871249	0.07349577102	0.07349577102	-0.1003609205	-0.1773802396	-0.008495093031	0.3041163892	1.227611194	-1.143014689	-0.9668072707	-1.050691183	-1.25687998	0.4143079421	-0.08315069982	0.682217952	-0.714667934	-0.05688977108	0.8026690533	-1.131344803	1.761638123	0.1932131497	-0.006484800203	0.001689177518
